<svg
          xmlns="http://www.w3.org/2000/svg"
          width="16px"
          fill="#3730A3"
          viewBox="0 0 17.14 21.425"
        >
          <g
            id="_000000ff"
            data-name="#000000ff"
            transform="translate(-85.345 -42.66)"
          >
            <path
              id="Path_170"
              data-name="Path 170"
              d="M130.627,42.712a3.487,3.487,0,0,1,.626-.052h8.489a3.209,3.209,0,0,1,3.214,2.778,5.762,5.762,0,0,1,.031.806V60.2a5.76,5.76,0,0,1-.1,1.443,3.231,3.231,0,0,1-2.3,2.332,5.637,5.637,0,0,1-1.5.106H131.2a3.22,3.22,0,0,1-3.212-3.179c0-1.071,0-2.142,0-3.213a1.071,1.071,0,1,1,2.141-.053c0,1.089,0,2.177,0,3.266a1.075,1.075,0,0,0,1.067,1.036q4.3,0,8.59,0a1.076,1.076,0,0,0,1.053-1.085q0-7.332,0-14.665a1.873,1.873,0,0,0-.07-.7,1.073,1.073,0,0,0-.984-.69q-4.294,0-8.588,0a1.074,1.074,0,0,0-1.068,1.04c0,.986,0,1.972,0,2.958a1.516,1.516,0,0,1-.118.773,1.07,1.07,0,0,1-2.023-.472q0-1.631,0-3.264a3.221,3.221,0,0,1,2.636-3.127Z"
              transform="translate(-40.503 0)"
              fill="#fff"
            ></path>
            <path
              id="Path_171"
              data-name="Path 171"
              d="M93.612,170.98a1.072,1.072,0,0,1,1.057.253c1.042,1.033,2.071,2.08,3.118,3.108a1.107,1.107,0,0,1,.4,1.068,1.254,1.254,0,0,1-.475.731c-1.025,1.017-2.041,2.044-3.066,3.06a1.07,1.07,0,0,1-1.708-1.214,1.6,1.6,0,0,1,.4-.5c.407-.4.807-.814,1.218-1.213q-4.06.006-8.119,0a1.071,1.071,0,0,1-.362-2.085,1.634,1.634,0,0,1,.563-.058c2.639,0,5.279,0,7.918,0-.461-.448-.91-.908-1.367-1.361a1.071,1.071,0,0,1,.429-1.794Z"
              transform="translate(0 -121.831)"
              fill="#fff"
            ></path>
          </g>
        </svg>